<?xml version="1.0" encoding="UTF-8"?><svg id="Layer_2" xmlns="http://www.w3.org/2000/svg" viewBox="0 0 216 198.698"><defs><style>.cls-1{fill:#fff;}.cls-2{fill:#fcaf17;}</style></defs><g id="Layer_1-2"><path d="m178.42969,0H38.26169C17.16549,0,0,16.6553,0,37.1162v124.5108c0,20.7471,16.64789,36.999,37.915,36.999h140.16119c21.2666,0,37.92381-16.2519,37.92381-36.999V37.1162c0-20.8105-16.498-37.1162-37.57031-37.1162Zm33.3135,161.6202c0,18.3642-14.78619,32.746-33.667,32.746H37.915c-18.87061,0-33.66211-14.3818-33.66211-32.746l.001-124.5118C4.25389,18.6807,19.19679,4.2549,38.26169,4.2549h140.168c18.6787,0,33.3135,14.4258,33.3135,32.8535v124.5118Z"/><path class="cls-2" d="m178.42969,4.2549H38.26169C19.19679,4.2549,4.25389,18.6807,4.25389,37.1084l-.001,124.5118c0,18.3642,14.7915,32.746,33.66211,32.746h140.16119c18.88081,0,33.667-14.3818,33.667-32.746V37.1084c0-18.4277-14.6348-32.8535-33.3135-32.8535Z"/><path d="m185.49409,118.2041h-27.0615l-4.292-26.9795-15.8584,26.7901h-2.9658c-1.7988-3.1006-2.5127-7.6416-2.5127-10.4199,0-4.6084.332-9.1045.332-14.9522,0-7.7578-2.2793-11.9209-8.3652-13.3838v-.2304c12.9424-1.7989,18.8096-10.3614,18.8096-22.4161,0-17.1259-11.3936-20.8408-26.3233-20.8408h-40.17379l-16.97661,80.3965h21.3477l6.1787-29.2529h14.1914c7.5684,0,10.6651,3.706,10.6651,10.7929,0,5.3916-.5616,9.6612-.5616,13.8155,0,1.5351.3477,5.1054,1.3858,6.4912-.0127,0,15.4306,16.2842,15.4306,16.2842l-13.2773,28.5478,28.3965-16.8711,21.1592,16.2559-3.9493-26.9346,24.4209-17.0928Zm-77.291-46.3408h-16.9687l4.0644-19.3808h15.7881c5.62111,0,11.4668,1.4619,11.4668,8.3408,0,8.6699-6.6572,11.04-14.3506,11.04Z"/><polygon class="cls-1" points="173.03519 122.1329 155.07619 122.1329 151.97459 102.5996 140.52539 121.9424 122.42479 121.9424 133.43359 133.5362 124.37989 152.9766 144.15819 141.2344 159.73729 153.2139 156.84379 133.462 173.03519 122.1329"/><path class="cls-1" d="m211.35609,190.8083c1.315,0,1.9732.552,1.9732,1.6557,0,.9184-.5081,1.4435-1.5231,1.5759l1.6559,2.5561h-.9673l-1.5763-2.4898h-.9534v2.4898h-.9009v-5.7877h2.2919Zm-.35809,2.5693c.54759,0,.923-.0726,1.12629-.2185.2025-.1455.3042-.3906.3042-.7349,0-.5914-.4059-.8873-1.2182-.8873h-1.2452v1.8407h1.03291Z"/><path class="cls-1" d="m210.998,198.698c-2.75721,0-5-2.243-5-5s2.24279-5,5-5,5,2.243,5,5-2.24281,5-5,5Zm0-9.2181c-2.32581,0-4.21871,1.8921-4.21871,4.2181s1.8929,4.2181,4.21871,4.2181,4.21879-1.8921,4.21879-4.2181-1.893-4.2181-4.21879-4.2181Z"/><path class="cls-1" d="m211.35609,190.8083c1.315,0,1.9732.552,1.9732,1.6557,0,.9184-.5081,1.4435-1.5231,1.5759l1.6559,2.5561h-.9673l-1.5763-2.4898h-.9534v2.4898h-.9009v-5.7877h2.2919Zm-.35809,2.5693c.54759,0,.923-.0726,1.12629-.2185.2025-.1455.3042-.3906.3042-.7349,0-.5914-.4059-.8873-1.2182-.8873h-1.2452v1.8407h1.03291Z"/><path class="cls-1" d="m210.998,198.698c-2.75721,0-5-2.243-5-5s2.24279-5,5-5,5,2.243,5,5-2.24281,5-5,5Zm0-9.2181c-2.32581,0-4.21871,1.8921-4.21871,4.2181s1.8929,4.2181,4.21871,4.2181,4.21879-1.8921,4.21879-4.2181-1.893-4.2181-4.21879-4.2181Z"/></g></svg>