<svg width="161" height="21" viewBox="0 0 161 21" fill="none" xmlns="http://www.w3.org/2000/svg">
<g clip-path="url(#clip0_1481_10483)">
<path d="M10.5981 8.52C10.6107 8.52209 10.6223 8.52791 10.6314 8.53667C13.6729 10.8111 18.8807 16.4383 17.293 18.0278C15.4393 19.6219 13.0602 20.5005 10.5975 20.5005C8.13482 20.5005 5.75578 19.6219 3.90204 18.0278C2.31433 16.4383 7.52155 10.8111 10.5631 8.53667C10.5728 8.52781 10.585 8.52201 10.5981 8.52ZM15.8963 1.96444C14.3385 1.05556 12.6508 0.5 10.5981 0.5C8.54537 0.5 6.85766 1.05556 5.2999 1.96333C5.29125 1.96795 5.28469 1.97561 5.28155 1.98478C5.2784 1.99395 5.2789 2.00395 5.28295 2.01278C5.2877 2.02094 5.29527 2.02716 5.30429 2.03032C5.3133 2.03348 5.32317 2.03337 5.3321 2.03C7.30176 1.61167 10.293 3.28389 10.5766 3.45167C10.5826 3.45664 10.5902 3.45937 10.5981 3.45937C10.6059 3.45937 10.6135 3.45664 10.6196 3.45167C10.9021 3.285 13.8967 1.61167 15.8641 2.03C15.873 2.03337 15.8829 2.03348 15.8919 2.03032C15.9009 2.02716 15.9085 2.02094 15.9132 2.01278C15.9173 2.00395 15.9178 1.99395 15.9146 1.98478C15.9115 1.97561 15.9049 1.96795 15.8963 1.96333V1.96444ZM3.47884 3.36944C3.46202 3.37829 3.44676 3.38973 3.43364 3.40333C1.68213 5.11222 0.622402 7.38907 0.452017 9.80942C0.281633 12.2298 1.01221 14.6285 2.50757 16.5583C2.51323 16.5675 2.52217 16.5742 2.53263 16.5772C2.54309 16.5802 2.55431 16.5792 2.56407 16.5744C2.57183 16.5685 2.57722 16.5601 2.57928 16.5506C2.58135 16.5412 2.57997 16.5313 2.57537 16.5228C1.79847 14.1667 5.76208 8.45222 7.80915 6.05556C7.81722 6.0479 7.82223 6.03765 7.82328 6.02667C7.82304 6.02018 7.82135 6.01383 7.81832 6.00807C7.81529 6.0023 7.811 5.99727 7.80576 5.99333C4.70324 2.96056 3.64834 3.28278 3.47884 3.36944ZM13.3904 5.99444C13.3852 5.99838 13.3809 6.00341 13.3779 6.00918C13.3748 6.01494 13.3731 6.02129 13.3729 6.02778C13.3739 6.03876 13.379 6.04901 13.387 6.05667C15.4341 8.45222 19.3977 14.1667 18.6214 16.5228C18.6168 16.5313 18.6154 16.5412 18.6175 16.5506C18.6195 16.5601 18.6249 16.5685 18.6327 16.5744C18.6424 16.5792 18.6536 16.5802 18.6641 16.5772C18.6746 16.5742 18.6835 16.5675 18.6892 16.5583C20.1845 14.6284 20.9149 12.2297 20.7444 9.80932C20.574 7.38896 19.5141 5.11215 17.7625 3.40333C17.7494 3.38973 17.7341 3.37829 17.7173 3.36944C17.5478 3.28278 16.4929 2.96056 13.3904 5.99444ZM35.8217 16.6611H33.7402L30.1579 11.8133L26.5763 16.6611H24.4976L29.1206 10.405L24.8581 4.63944H26.939L30.1596 8.99611L33.3802 4.63944H35.459L31.1987 10.4039L35.8217 16.6611ZM46.6237 13.2428C46.6237 14.2983 46.2678 15.1411 45.5649 15.7478C44.862 16.3544 43.8421 16.6611 42.5313 16.6611H36.7986V11.3067H34.0747L35.2081 9.77333H36.7986V4.63944H42.2912C43.5223 4.63944 44.4801 4.92944 45.1366 5.50222C45.7932 6.075 46.1271 6.83889 46.1271 7.77111C46.1271 8.92722 45.5937 9.80389 44.545 10.3772C45.2231 10.6356 45.744 11.015 46.0921 11.5061C46.4485 12.0162 46.6342 12.6229 46.6232 13.2417L46.6237 13.2428ZM38.666 9.77333H42.1691C42.8748 9.77333 43.4122 9.61778 43.7625 9.31056C44.1128 9.00333 44.2913 8.53722 44.2913 7.92167C44.2913 7.39056 44.106 6.97056 43.741 6.67222C43.376 6.37389 42.8488 6.22222 42.1714 6.22222H38.6683L38.666 9.77333ZM44.7388 13.2083C44.7388 12.5772 44.545 12.0972 44.1631 11.7822C43.7811 11.4672 43.1963 11.3067 42.4279 11.3067H38.666V15.0761H42.4279C43.1737 15.0761 43.7517 14.9133 44.1461 14.5917C44.5405 14.27 44.7388 13.8061 44.7388 13.2083ZM59.1819 10.6494C59.1819 11.5789 59.0446 12.4317 58.7739 13.1844C58.5099 13.9279 58.0938 14.6102 57.5512 15.1894C57.0199 15.7559 56.3691 16.2013 55.6443 16.4944C54.9267 16.7828 54.1119 16.9294 53.2237 16.9294C52.3237 16.9294 51.5038 16.7828 50.7857 16.4944C50.0647 16.2038 49.4191 15.7581 48.8962 15.19C48.3478 14.6159 47.9268 13.936 47.66 13.1933C47.3865 12.44 47.2481 11.5822 47.2481 10.6494C47.2481 9.71667 47.3865 8.86611 47.66 8.11C47.9284 7.36198 48.349 6.6756 48.8962 6.09278C49.4202 5.52895 50.0658 5.08744 50.7857 4.80056C51.5038 4.515 52.3237 4.37 53.2237 4.37C54.1119 4.37 54.9267 4.515 55.6443 4.80056C56.3677 5.08999 57.0184 5.53074 57.5512 6.09222C58.0933 6.67704 58.5093 7.36383 58.7739 8.11111C59.0446 8.86611 59.1819 9.72222 59.1819 10.6494ZM49.181 10.6494C49.181 12.0639 49.5539 13.1983 50.2896 14.0217C51.0134 14.855 51.9993 15.2778 53.2209 15.2778C54.4425 15.2778 55.4284 14.855 56.1517 14.0217C56.8755 13.2094 57.2427 12.0772 57.2427 10.6494C57.2427 9.22167 56.8755 8.08389 56.1517 7.26056C55.4171 6.43833 54.4306 6.02111 53.2203 6.02111C52.0101 6.02111 51.0241 6.43833 50.289 7.26056C49.5568 8.10611 49.1833 9.24667 49.1833 10.6494H49.181ZM65.0773 10.4039L69.337 4.63944H67.2583L64.0376 8.99611L60.817 4.63944H58.7378L62.9974 10.4039L58.3761 16.66H60.4571L64.0393 11.8122L67.621 16.66H69.7025L65.0773 10.4039ZM85.2485 6.29278V9.77556H91.3219V11.3089H85.2524V15.0106H92.118V16.6622H83.385V4.63889H92.118V6.29056L85.2485 6.29278ZM80.9543 11.0933C80.3447 10.5439 79.3305 10.1178 77.9417 9.82667L76.88 9.60778C75.872 9.39611 75.1719 9.13667 74.7984 8.83667C74.4284 8.55889 74.2408 8.14611 74.2408 7.605C74.2408 7.075 74.4515 6.66056 74.8668 6.37333C75.2821 6.08611 75.8968 5.93889 76.6879 5.93889C77.7049 5.93889 78.4541 6.12167 78.9112 6.48222C79.3683 6.84278 79.6271 7.41278 79.6836 8.17833V8.195H81.5329V8.17667C81.5097 6.99889 81.0905 6.06 80.2853 5.38611C79.4802 4.71222 78.2648 4.37222 76.6692 4.37222C75.3476 4.37222 74.2837 4.67056 73.5085 5.26111C72.7333 5.85167 72.3372 6.65 72.3372 7.64C72.3372 8.63 72.6615 9.41445 73.3017 9.97611C73.9419 10.5378 74.8996 10.9461 76.1522 11.1922L77.1964 11.4111C78.2275 11.6333 78.9479 11.8906 79.3468 12.1744C79.7458 12.4583 79.9384 12.8611 79.9384 13.3806C79.9384 14.0222 79.696 14.5189 79.2186 14.8561C78.7411 15.1933 78.0422 15.3661 77.1489 15.3661C76.068 15.3661 75.2426 15.1406 74.6945 14.6994C74.1464 14.2583 73.8622 13.5811 73.847 12.6928V12.6667H71.9796V12.6844C71.9914 14.0639 72.4513 15.1289 73.3475 15.8456C74.2436 16.5622 75.5109 16.9272 77.1167 16.9272C78.5976 16.9272 79.7723 16.6028 80.6114 15.9639C81.4504 15.325 81.877 14.4356 81.877 13.3239C81.8776 12.3939 81.5674 11.6417 80.9555 11.0911L80.9543 11.0933ZM103.351 15.1783L103.231 13.3106C103.208 12.6483 103.057 12.11 102.783 11.7106C102.516 11.3217 102.094 11.0406 101.527 10.87C102.152 10.665 102.647 10.3144 102.996 9.82889C103.356 9.32889 103.539 8.705 103.539 7.975C103.539 6.94167 103.16 6.11889 102.409 5.53056C101.659 4.94222 100.624 4.64167 99.3248 4.64167H93.9826V16.66H95.8505V11.7278H99.3762C100.076 11.7278 100.59 11.8872 100.902 12.2022C101.214 12.5172 101.394 13.0656 101.428 13.8317L101.479 15.1094C101.491 15.8056 101.613 16.3244 101.842 16.6511L101.847 16.6589H103.768L103.752 16.6322C103.544 16.2778 103.408 15.7878 103.352 15.1761L103.351 15.1783ZM95.8533 6.22222H99.2248C99.9932 6.22222 100.592 6.38556 101.003 6.70667C101.414 7.02778 101.623 7.51 101.623 8.14111C101.623 8.795 101.42 9.30778 101.021 9.66C100.622 10.0122 100.06 10.1944 99.3638 10.1944H95.855L95.8533 6.22222ZM105.228 16.66H107.096V4.63889H105.228V16.66ZM117.696 6.29056V4.63889H108.963V16.66H117.696V15.0083H110.833V11.3067H116.905V9.77333H110.833V6.29056H117.696ZM127.649 11.0911C127.038 10.5417 126.025 10.1156 124.636 9.82444L123.574 9.60556C122.566 9.39389 121.866 9.13445 121.493 8.83444C121.123 8.55667 120.935 8.14389 120.935 7.60278C120.935 7.07278 121.145 6.65833 121.561 6.37111C121.976 6.08389 122.591 5.93667 123.382 5.93667C124.399 5.93667 125.148 6.11944 125.606 6.48C126.063 6.84056 126.321 7.41056 126.377 8.17611V8.19278H128.227V8.17445C128.204 6.99667 127.784 6.05778 126.979 5.38389C126.175 4.71 124.958 4.37 123.363 4.37C122.041 4.37 120.978 4.66833 120.202 5.25889C119.426 5.84945 119.03 6.64778 119.03 7.63778C119.03 8.62778 119.355 9.41222 119.995 9.97389C120.636 10.5356 121.593 10.9439 122.845 11.19L123.89 11.4089C124.921 11.6311 125.645 11.8883 126.04 12.1722C126.436 12.4561 126.632 12.8589 126.632 13.3783C126.632 14.02 126.39 14.5167 125.912 14.8539C125.434 15.1911 124.736 15.3639 123.842 15.3639C122.762 15.3639 121.936 15.1383 121.388 14.6972C120.84 14.2561 120.556 13.5789 120.541 12.6906V12.6667H118.673V12.6844C118.685 14.0639 119.145 15.1289 120.041 15.8456C120.937 16.5622 122.204 16.9272 123.811 16.9272C125.291 16.9272 126.466 16.6028 127.305 15.9639C128.144 15.325 128.571 14.4356 128.571 13.3239C128.571 12.3939 128.261 11.6417 127.649 11.0911ZM147.533 3.13667H146.598V18.1622H147.532L147.533 3.13667ZM138.982 10.4039L143.242 4.63944H141.161L137.941 8.99611L134.72 4.63944H132.642L136.903 10.4039L132.28 16.66H134.361L137.943 11.8122L141.525 16.66H143.604L138.982 10.4039ZM159.506 11.0911C158.896 10.5417 157.882 10.1156 156.493 9.82444L155.432 9.60556C154.423 9.39389 153.723 9.13445 153.35 8.83444C152.98 8.55667 152.792 8.14444 152.792 7.60278C152.792 7.07278 153.003 6.65833 153.418 6.37111C153.833 6.08389 154.448 5.93667 155.24 5.93667C156.257 5.93667 157.006 6.11944 157.463 6.48C157.919 6.84056 158.181 7.41056 158.238 8.17611V8.19278H160.088V8.17445C160.065 6.99667 159.645 6.05778 158.84 5.38389C158.035 4.71 156.82 4.37 155.224 4.37C153.902 4.37 152.838 4.66833 152.063 5.25889C151.287 5.84945 150.891 6.64778 150.891 7.63778C150.891 8.62778 151.216 9.41222 151.856 9.97389C152.497 10.5356 153.454 10.9439 154.706 11.19L155.751 11.4089C156.782 11.6311 157.505 11.8883 157.901 12.1722C158.296 12.4561 158.493 12.8589 158.493 13.3783C158.493 14.02 158.251 14.5167 157.773 14.8539C157.295 15.1911 156.597 15.3639 155.703 15.3639C154.623 15.3639 153.797 15.1383 153.249 14.6972C152.702 14.2561 152.417 13.5789 152.402 12.6906V12.6667H150.531V12.6844C150.542 14.0639 151.002 15.1289 151.898 15.8456C152.794 16.5622 154.062 16.9272 155.667 16.9272C157.148 16.9272 158.323 16.6028 159.163 15.9639C160.002 15.325 160.428 14.4356 160.428 13.3239C160.428 12.3939 160.118 11.6417 159.506 11.0911Z" fill="white"/>
</g>
<defs>
<clipPath id="clip0_1481_10483">
<rect width="160" height="20" fill="white" transform="translate(0.427734 0.5)"/>
</clipPath>
</defs>
</svg>
