<svg width="92" height="21" viewBox="0 0 92 21" fill="none" xmlns="http://www.w3.org/2000/svg">
<g clip-path="url(#clip0_1481_10481)">
<path d="M9.56404 0.5V18.9071L13.7283 20.2357V4.78571C13.7283 4.07143 14.0497 3.57857 14.5712 3.74286C15.2855 3.93571 15.3855 4.6 15.3855 5.32143V11.5C17.9855 12.75 20.0283 11.5 20.0283 8.18571C20.0283 4.87143 18.8283 3.28571 15.2997 2.07143C13.4203 1.4356 11.5051 0.910889 9.56404 0.5Z" fill="white"/>
<path d="M14.5208 17.5429L21.2208 15.1571C21.9779 14.8786 22.0994 14.4929 21.4779 14.2929C20.6512 14.1029 19.7879 14.1474 18.9851 14.4214L14.5208 15.9929V13.4929L14.7779 13.4071C15.7785 13.0818 16.8103 12.8616 17.8565 12.75C19.8119 12.5545 21.7862 12.7986 23.6351 13.4643C25.6065 14.0857 25.8208 15 25.3279 15.6071C24.8371 16.0899 24.2473 16.4603 23.5994 16.6929L14.5208 19.9571V17.5429Z" fill="white"/>
<path d="M1.92091 17.2857C-0.100516 16.7214 -0.436231 15.5357 0.492341 14.8571C1.20633 14.3919 1.97686 14.0198 2.7852 13.75L8.75663 11.6071V14.0714L4.47091 15.6071C3.71377 15.8857 3.59234 16.2714 4.21377 16.4714C5.04049 16.6614 5.90384 16.6169 6.70663 16.3428L8.77091 15.6286V17.7714L8.35663 17.8428C6.20309 18.1904 3.99742 18.0115 1.92806 17.3214" fill="white"/>
<path d="M58.8067 17.3572C59.2372 17.3562 59.6634 17.2705 60.0608 17.1049C60.4582 16.9392 60.8191 16.6969 61.1229 16.3918C61.4267 16.0867 61.6674 15.7248 61.8313 15.3266C61.9952 14.9285 62.0791 14.502 62.0781 14.0714V8.44286C62.08 7.91935 62.2893 7.41793 62.6601 7.04842C63.031 6.67891 63.5332 6.47143 64.0567 6.47143H70.4067C70.4179 6.47143 70.4291 6.46922 70.4395 6.46491C70.4499 6.4606 70.4594 6.45429 70.4673 6.44633C70.4753 6.43837 70.4816 6.42892 70.4859 6.41852C70.4902 6.40812 70.4924 6.39698 70.4924 6.38572V5.25715C70.4924 5.24589 70.4902 5.23475 70.4859 5.22435C70.4816 5.21395 70.4753 5.2045 70.4673 5.19654C70.4594 5.18858 70.4499 5.18227 70.4395 5.17796C70.4291 5.17365 70.4179 5.17143 70.4067 5.17143H62.7495C61.8819 5.17143 61.0498 5.5161 60.4363 6.12961C59.8228 6.74313 59.4781 7.57523 59.4781 8.44286V14.0714C59.4781 14.5962 59.2697 15.0994 58.8986 15.4705C58.5276 15.8415 58.0243 16.05 57.4995 16.05H51.2353C51.224 16.05 51.2129 16.0522 51.2025 16.0565C51.1921 16.0608 51.1826 16.0672 51.1747 16.0751C51.1667 16.0831 51.1604 16.0925 51.1561 16.1029C51.1518 16.1133 51.1496 16.1245 51.1496 16.1357V17.2643C51.1512 17.2865 51.1608 17.3073 51.1765 17.3231C51.1922 17.3388 51.2131 17.3484 51.2353 17.35L58.8067 17.3572Z" fill="white"/>
<path d="M73.1138 9.78571V5.25714C73.1138 5.24589 73.1161 5.23474 73.1204 5.22434C73.1247 5.21394 73.131 5.20449 73.139 5.19653C73.1469 5.18857 73.1564 5.18226 73.1668 5.17795C73.1772 5.17364 73.1883 5.17143 73.1996 5.17143H90.4996C90.5114 5.17044 90.5233 5.17192 90.5346 5.17578C90.5458 5.17964 90.5561 5.1858 90.5648 5.19386C90.5736 5.20192 90.5805 5.21171 90.5853 5.2226C90.59 5.2335 90.5925 5.24526 90.5924 5.25714V6.38571C90.5925 6.3976 90.59 6.40936 90.5853 6.42025C90.5805 6.43115 90.5736 6.44094 90.5648 6.449C90.5561 6.45706 90.5458 6.46321 90.5346 6.46707C90.5233 6.47094 90.5114 6.47242 90.4996 6.47143H75.8067C75.7949 6.47044 75.7829 6.47192 75.7717 6.47578C75.7605 6.47964 75.7502 6.4858 75.7414 6.49386C75.7327 6.50192 75.7257 6.51171 75.721 6.5226C75.7162 6.5335 75.7138 6.54526 75.7138 6.55714V9.48571C75.7157 9.73454 75.8159 9.97252 75.9925 10.1478C76.1691 10.3231 76.4079 10.4214 76.6567 10.4214H87.5996C88.4921 10.4619 89.3346 10.845 89.9518 11.4909C90.5691 12.1368 90.9136 12.9959 90.9136 13.8893C90.9136 14.7827 90.5691 15.6417 89.9518 16.2877C89.3346 16.9336 88.4921 17.3166 87.5996 17.3571H73.1996C73.1774 17.3555 73.1565 17.3459 73.1408 17.3302C73.1251 17.3145 73.1155 17.2936 73.1138 17.2714V16.1429C73.1138 16.1316 73.1161 16.1205 73.1204 16.1101C73.1247 16.0997 73.131 16.0902 73.139 16.0822C73.1469 16.0743 73.1564 16.068 73.1668 16.0637C73.1772 16.0594 73.1883 16.0571 73.1996 16.0571H86.2924C86.8674 16.0571 87.4188 15.8287 87.8253 15.4222C88.2319 15.0156 88.4603 14.4642 88.4603 13.8893C88.4603 13.3143 88.2319 12.7629 87.8253 12.3564C87.4188 11.9498 86.8674 11.7214 86.2924 11.7214H75.0924C74.575 11.7215 74.0781 11.519 73.7083 11.1572C73.3384 10.7953 73.1251 10.303 73.1138 9.78571Z" fill="white"/>
<path d="M47.4282 10.4214C47.9315 10.3911 48.4042 10.1699 48.7498 9.80283C49.0955 9.43577 49.2879 8.95061 49.2879 8.44643C49.2879 7.94225 49.0955 7.45709 48.7498 7.09003C48.4042 6.72297 47.9315 6.50171 47.4282 6.47143H34.1568C34.1449 6.47242 34.133 6.47094 34.1218 6.46707C34.1105 6.46321 34.1002 6.45706 34.0915 6.449C34.0827 6.44094 34.0758 6.43115 34.071 6.42025C34.0663 6.40936 34.0639 6.3976 34.0639 6.38571V5.25714C34.0639 5.24526 34.0663 5.2335 34.071 5.2226C34.0758 5.21171 34.0827 5.20192 34.0915 5.19386C34.1002 5.1858 34.1105 5.17964 34.1218 5.17578C34.133 5.17192 34.1449 5.17044 34.1568 5.17143H48.7282C49.5703 5.21077 50.3649 5.57299 50.947 6.18286C51.529 6.79274 51.8538 7.60338 51.8538 8.44643C51.8538 9.28947 51.529 10.1001 50.947 10.71C50.3649 11.3199 49.5703 11.6821 48.7282 11.7214H38.6425C38.1196 11.7214 37.6182 11.9291 37.2485 12.2988C36.8787 12.6686 36.671 13.17 36.671 13.6929V17.2643C36.6694 17.2865 36.6598 17.3073 36.6441 17.3231C36.6284 17.3388 36.6075 17.3483 36.5853 17.35H34.1568C34.1333 17.3501 34.1107 17.3413 34.0935 17.3254C34.0763 17.3095 34.0657 17.2877 34.0639 17.2643V13.6929C34.0658 12.8246 34.412 11.9925 35.0267 11.3792C35.6413 10.7659 36.4742 10.4214 37.3425 10.4214H47.4282Z" fill="white"/>
</g>
<defs>
<clipPath id="clip0_1481_10481">
<rect width="91.4286" height="20" fill="white" transform="translate(0 0.5)"/>
</clipPath>
</defs>
</svg>
